<svg width="643" height="634" viewBox="0 0 643 634" fill="none" xmlns="http://www.w3.org/2000/svg">
<path d="M321.519 633.453C176.037 633.453 58.1025 607.48 58.1025 575.44C58.1025 572.333 59.2092 569.28 61.3465 566.307C74.3665 572.173 88.8092 575.44 104.017 575.44H243.995H538.055C553.544 575.44 568.244 572.053 581.451 565.973C583.743 569.053 584.936 572.213 584.936 575.44C584.936 607.48 467 633.453 321.519 633.453Z" fill="#394F4D"/>
<path d="M456.003 192.693C455.729 192.693 455.456 192.68 455.179 192.667C448.725 192.213 443.855 186.627 444.303 180.173C444.328 179.8 446.875 142.44 445.344 111.32C443.837 80.6802 433.595 64.1468 411.097 56.0401C405.009 53.8401 401.853 47.1201 404.047 41.0401C406.24 34.9468 412.951 31.8002 419.04 33.9869C450.525 45.3335 466.785 70.2534 468.747 110.173C470.347 142.707 467.787 180.214 467.677 181.787C467.249 187.974 462.103 192.693 456.003 192.693" fill="#F6633C"/>
<path d="M186.069 192.693C186.343 192.693 186.616 192.68 186.892 192.667C193.347 192.213 198.217 186.627 197.769 180.173C197.743 179.8 195.197 142.44 196.727 111.32C198.235 80.6802 208.476 64.1468 230.975 56.0401C237.063 53.8401 240.219 47.1201 238.025 41.0401C235.832 34.9468 229.12 31.8002 223.032 33.9869C191.547 45.3335 175.287 70.2534 173.325 110.173C171.725 142.707 174.284 180.214 174.395 181.787C174.823 187.974 179.969 192.693 186.069 192.693" fill="#F6633C"/>
<path d="M642.073 271.814V471.413C642.073 528.853 595.508 575.44 538.055 575.44H104.017C46.5653 575.44 0 528.853 0 471.413V271.814C0 214.374 46.5653 167.8 104.017 167.8H538.055C595.508 167.8 642.073 214.374 642.073 271.814Z" fill="#F6633C"/>
<path d="M62.9478 237.147C58.4238 237.147 53.9385 235.187 50.8505 231.414C45.3865 224.734 46.3705 214.893 53.0465 209.427C55.2985 207.587 57.6772 205.853 60.1132 204.267C62.7465 202.547 65.7038 201.72 68.6278 201.72C73.7332 201.72 78.7345 204.227 81.7305 208.814C86.4398 216.04 84.3998 225.72 77.1718 230.44C75.6745 231.413 74.2145 232.48 72.8318 233.614C69.9305 235.987 66.4265 237.147 62.9478 237.147" fill="#FBB19E"/>
<path d="M39.0493 370.053C30.4213 370.053 23.428 363.067 23.428 354.44V271.813C23.428 263.187 30.4213 256.2 39.0493 256.2C47.676 256.2 54.6706 263.187 54.6706 271.813V354.44C54.6706 363.067 47.676 370.053 39.0493 370.053Z" fill="#FBB19E"/>
<path d="M372.783 519.987H269.289V223.24H372.783V519.987" fill="#EBEFF0"/>
<path d="M469.41 319.867V423.36H172.661V319.867H469.41Z" fill="#EBEFF0"/>
<path d="M321.036 74.0533C288.343 74.0533 266.605 76.6933 240.732 79.6C214.859 82.5066 220.404 72.2 218.027 50.8134C215.651 29.44 220.404 13.8533 235.188 8.05335C249.973 2.24002 289.839 -3.59168e-05 321.036 -3.59168e-05C352.233 -3.59168e-05 392.099 2.24002 406.884 8.05335C421.668 13.8533 426.42 29.44 424.044 50.8134C421.668 72.2 427.213 82.5066 401.34 79.6C375.467 76.6933 353.729 74.0533 321.036 74.0533" fill="#5AA19E"/>
<path d="M408.847 80.0802C406.695 80.0802 404.212 79.9201 401.34 79.6001C375.467 76.6935 353.729 74.0535 321.036 74.0535C288.343 74.0535 266.605 76.6935 240.732 79.6001C237.861 79.9201 235.376 80.0802 233.225 80.0802C226.435 80.0802 222.964 78.4935 221.123 75.4001C219.421 72.5335 219.112 68.4001 218.861 63.0401C220.845 63.0268 223.109 62.8534 225.687 62.5734C251.556 59.6668 273.299 57.0268 305.993 57.0268C338.688 57.0268 360.416 59.6668 386.284 62.5734C389.145 62.8934 391.624 63.0535 393.769 63.0535C411.04 63.0535 406.884 52.8135 408.996 33.7868C410.091 23.9202 409.668 15.2802 407.435 8.2802C410.551 9.57354 413.207 11.3201 415.431 13.4668C417.737 15.6935 419.581 18.3602 420.993 21.4268C420.997 21.4268 421.001 21.4402 421.005 21.4535C421.012 21.4668 421.019 21.4802 421.025 21.4935C421.033 21.5068 421.043 21.5335 421.051 21.5469C421.052 21.5469 421.055 21.5602 421.056 21.5602C424.505 29.1335 425.339 39.1069 424.039 50.8135C422.612 63.6669 424.043 72.5068 419.804 76.9068C417.771 79.0001 414.432 80.0802 408.847 80.0802Z" fill="#4D8986"/>
<path d="M538.055 575.44H243.995C427.741 575.44 512.217 558.787 567.14 503.867C622.048 448.96 642.073 379.254 642.073 271.814V471.413C642.073 528.853 595.508 575.44 538.055 575.44" fill="#D15433"/>
</svg>
