<svg width="33" height="37" viewBox="0 0 33 37" fill="none" xmlns="http://www.w3.org/2000/svg">
<path d="M14.55 37C10.45 36.6667 7 34.9833 4.2 31.95C1.4 28.9167 0 25.3167 0 21.15C0 18.5833 0.591666 16.1667 1.775 13.9C2.95833 11.6333 4.61667 9.78333 6.75 8.35L8.9 10.5C7.03333 11.6 5.58333 13.1083 4.55 15.025C3.51667 16.9417 3 18.9833 3 21.15C3 24.4833 4.1 27.3667 6.3 29.8C8.5 32.2333 11.25 33.6333 14.55 34V37ZM17.55 37V34C20.8833 33.6 23.6333 32.1917 25.8 29.775C27.9667 27.3583 29.05 24.4833 29.05 21.15C29.05 17.5167 27.7917 14.4417 25.275 11.925C22.7583 9.40833 19.6833 8.15 16.05 8.15H15.05L18.05 11.15L15.9 13.3L9.25 6.65L15.9 0L18.05 2.15L15.05 5.15H16.05C20.5167 5.15 24.3 6.70833 27.4 9.825C30.5 12.9417 32.05 16.7167 32.05 21.15C32.05 25.3167 30.6583 28.9167 27.875 31.95C25.0917 34.9833 21.65 36.6667 17.55 37Z" fill="#F15A25"/>
</svg>
